# xmcd
# 
# Track frame offsets:
#     225
#     14295
#     24776
#     40443
#     52563
#     66477
#     79423
#     90762
#     101153
#     116940
#     125764
#     136987
#     146263
#     160826
#     173469
#     184709
#     194720
#     207782
# 
# Disc length: 2920
# 
# Revision: 2
# Processed by: cddbd v1.5.2PL0 Copyright (c) Steve Scherf et al.
# Submitted via: fre:ac v1.0.31
# 
DISCID=f20b6512
DTITLE=Various Artist - Café Paris (18 Beautiful Accordion Melodies)
DYEAR=0
DGENRE=Instrumental
TTITLE0=Carpentier, Al Merrill - Via El Corda
TTITLE1=Carpentier, Al Merrill - Voltige
TTITLE2=Larcagne - Christopher Parade
TTITLE3=Larcagne - Pistonnette
TTITLE4=Carpentier, Al Merrill - Titralala
TTITLE5=Largagbe, Perret - Le Paso Des Savoyards
TTITLE6=Carpentier - Lorraine Valsa
TTITLE7=Larcagne - Recuerdo Di Junio
TTITLE8=Larcagne - Coucou Musette
TTITLE9=Zanninetti - Accordeon Tierce
TTITLE10=Peguri - Bourasque
TTITLE11=Farge, Zaragoza - Mon Petit Mangein
TTITLE12=Carpentier, Zaragoza - Ay Joselina
TTITLE13=Carpentier, Al Merrill - Radio Set
TTITLE14=Carpentier - Mado Java
TTITLE15=Carpentier, Zaragoza - Souviens Toi Du Passe
TTITLE16=Carpentier, Zaragoza - Une Valse D'un Jour
TTITLE17=Carpentier, Zaragoza - Toujours Pres De Toi
EXTD=
EXTT0=
EXTT1=
EXTT2=
EXTT3=
EXTT4=
EXTT5=
EXTT6=
EXTT7=
EXTT8=
EXTT9=
EXTT10=
EXTT11=
EXTT12=
EXTT13=
EXTT14=
EXTT15=
EXTT16=
EXTT17=
PLAYORDER=
